<?xml version="1.0"?>
<svg xmlns="http://www.w3.org/2000/svg" viewBox="0 0 24 24">
<path fill="#fff" d="m15.832 4.946c1.117 0 2.121.391 3.01 1.172.422.375.766.855 1.031 1.441.258.594.387 1.25.387 1.969 0 1.781-.781 3.348-2.344 4.699-.609.531-1.734 1.469-3.375 2.812s-2.488 2.02-2.543 2.02l-5.895-4.852c-.727-.602-1.301-1.301-1.723-2.098-.422-.805-.637-1.574-.645-2.309s.074-1.355.246-1.863c.305-.93.855-1.66 1.652-2.191.789-.531 1.637-.797 2.543-.797 1.492 0 2.766.637 3.82 1.91 1.049-1.272 2.326-1.909 3.834-1.909"/>
</svg>